<?xml version="1.0" standalone="no"?>
<!DOCTYPE svg PUBLIC "-//W3C//DTD SVG 20010904//EN"
 "http://www.w3.org/TR/2001/REC-SVG-20010904/DTD/svg10.dtd">
<svg version="1.0" xmlns="http://www.w3.org/2000/svg"
 width="157.000000pt" height="157.000000pt" viewBox="0 0 157.000000 157.000000"
 preserveAspectRatio="xMidYMid meet">
<metadata>
Created by potrace 1.14, written by Peter Selinger 2001-2017
</metadata>
<g transform="translate(0.000000,157.000000) scale(0.100000,-0.100000)"
fill="#000000" stroke="none">
<path d="M59 1536 c-22 -17 -15 -205 10 -269 6 -16 11 -37 11 -48 0 -11 22
-48 49 -83 27 -34 58 -81 70 -104 11 -22 30 -43 41 -47 11 -3 20 -14 20 -24 0
-10 6 -24 13 -30 14 -11 15 -44 3 -73 -4 -9 -5 -21 -2 -27 4 -5 -2 -12 -13
-16 -28 -9 -90 -93 -102 -139 -5 -23 -16 -59 -23 -82 -14 -41 -14 -87 0 -179
8 -59 9 -137 2 -217 -3 -31 -2 -62 3 -69 4 -7 30 -14 58 -15 76 -4 178 54 121
69 -30 8 -35 34 -14 73 21 38 60 69 69 55 3 -6 18 -6 35 -1 18 5 30 5 30 -1 0
-5 7 -9 15 -9 15 0 24 -37 24 -110 1 -64 5 -81 25 -92 39 -22 162 -13 167 11
5 23 5 50 0 49 -38 -4 -42 2 -40 57 3 65 29 129 59 145 12 6 43 14 68 17 26 3
49 6 51 8 6 7 81 -35 81 -45 0 -5 16 -37 36 -70 39 -67 42 -76 43 -134 1 -29
4 -36 13 -28 7 5 48 12 92 15 77 5 95 13 96 45 0 7 -5 10 -10 7 -6 -4 -17 -1
-25 5 -8 7 -15 9 -15 5 0 -4 -11 4 -25 19 -35 38 -42 99 -20 167 29 93 68 193
81 209 14 18 36 93 39 134 2 40 36 60 100 61 42 1 58 7 81 28 16 15 34 27 40
27 24 0 65 69 68 115 3 40 0 47 -22 58 -14 6 -28 21 -32 32 -9 25 10 87 34
110 48 48 77 166 51 202 -16 21 -112 20 -173 -1 -36 -13 -45 -12 -108 10 -42
15 -107 28 -167 33 -98 8 -116 15 -162 67 -21 24 -110 21 -120 -3 -4 -10 -9
-74 -10 -143 -2 -85 -6 -124 -13 -123 -6 2 -9 -3 -6 -11 8 -20 -12 -29 -37
-15 -15 8 -19 8 -15 0 4 -6 0 -14 -9 -17 -14 -6 -15 -21 -10 -110 6 -121 19
-111 -160 -128 -22 -3 -53 -9 -68 -15 -58 -22 -67 -17 -67 43 0 30 -5 58 -10
61 -6 4 -10 12 -8 18 3 20 -35 79 -74 115 -63 59 -85 100 -93 175 -4 38 -13
84 -21 103 -8 18 -14 46 -14 61 -1 25 -30 81 -30 57 0 -5 -4 -4 -8 3 -11 17
-55 23 -73 9z"/>
</g>
</svg>
